/* XPM */
static char *e8fc23eb267049d0c2eba0a998c5ed71[] = {
/* columns rows colors chars-per-pixel */
"16 16 153 2 ",
"   c #0079F6",
".  c #007FF6",
"X  c #00D0A9",
"o  c #00D0AA",
"O  c #00D0AB",
"+  c #00D1AB",
"@  c #00D2AB",
"#  c #00D1AC",
"$  c #00D2AD",
"%  c #00D3AF",
"&  c #00D4AF",
"*  c #00D4B0",
"=  c #00D5B0",
"-  c #00D4B1",
";  c #00D5B2",
":  c #00D5B3",
">  c #00D6B4",
",  c #07D7B4",
"<  c #09D4B0",
"1  c #10D8B8",
"2  c #12D9B9",
"3  c #17D8B8",
"4  c #1FDABC",
"5  c #21D8B7",
"6  c #21DABC",
"7  c #32DFBD",
"8  c #0080F6",
"9  c #0081F6",
"0  c #0082F6",
"q  c #0083F6",
"w  c #0084F6",
"e  c #0084F7",
"r  c #0086F6",
"t  c #0086F7",
"y  c #0087F7",
"u  c #0088F6",
"i  c #0089F7",
"p  c #008AF7",
"a  c #028BF7",
"s  c #008CF7",
"d  c #008EF7",
"f  c #0081F8",
"g  c #0087F9",
"h  c #0088F9",
"j  c #0F94F7",
"k  c #0691F8",
"l  c #2295F8",
"z  c #219BF8",
"x  c #27A0F8",
"c  c #25A1FE",
"v  c #28A1F9",
"b  c #2FA1F8",
"n  c #2FA1FA",
"m  c #3DA4FB",
"M  c #40A4FB",
"N  c #42A4FB",
"B  c #46ADF9",
"V  c #47AEF9",
"C  c #4BAEF9",
"Z  c #4DAFF9",
"A  c #49AAFE",
"S  c #44B3FF",
"D  c #4CB0F9",
"F  c #4CB8FF",
"G  c #52B6FF",
"H  c #65BAFA",
"J  c #6DBFFA",
"K  c #6CBFFB",
"L  c #71BEFA",
"P  c #31DEC1",
"I  c #3DDFC6",
"U  c #25E1C2",
"Y  c #3FE0C6",
"T  c #45E6C3",
"R  c #47E1C8",
"E  c #4CE1C9",
"W  c #4DE1C9",
"Q  c #45EACF",
"!  c #4DECD3",
"~  c #53EBD2",
"^  c #65E5D1",
"/  c #6CE7D4",
"(  c #6FE7D4",
")  c #6EE8D4",
"_  c #70E6D3",
"`  c #72E6D3",
"'  c #6EC0FC",
"]  c #85EED7",
"[  c #83F0D5",
"{  c #97F3DB",
"}  c #86C4FE",
"|  c #83C8FB",
" . c #9ECFFF",
".. c #A9D9FC",
"X. c #ADDAFC",
"o. c #BADDF7",
"O. c #B6DCFC",
"+. c #B9DCF8",
"@. c #B8EEE5",
"#. c #B9EEE5",
"$. c #B3F2E7",
"%. c #BEF7E6",
"&. c #BEF2E9",
"*. c #BFE1FB",
"=. c #DFDAD6",
"-. c #E0DCD6",
";. c #E0D8D9",
":. c #E0D8DA",
">. c #E1DADB",
",. c #E1DDDA",
"<. c #E8DBDD",
"1. c #E8E0DA",
"2. c #C0DEFF",
"3. c #C4FBE7",
"4. c #C8F9EA",
"5. c #C4E4FD",
"6. c #CBE6FD",
"7. c #C9E6FE",
"8. c #C6E9FF",
"9. c #D1E4FF",
"0. c #D2E6FE",
"q. c #D8EDFC",
"w. c #CDF6F0",
"e. c #C5FAF2",
"r. c #D7F6F1",
"t. c #D6F8F2",
"y. c #D6F8F3",
"u. c #DAF9F4",
"i. c #FFF2E0",
"p. c #FFF4E4",
"a. c #FFF5E4",
"s. c #E7ECFF",
"d. c #FFEDF3",
"f. c #E4FEF3",
"g. c #E7F9F7",
"h. c #E5FBF6",
"j. c #E7F4F9",
"k. c #EBF5F9",
"l. c #EBFAF8",
"z. c LavenderBlush",
"x. c #FFF1F5",
"c. c #F4F9F8",
"v. c #F4F9F9",
"b. c #F3FFF8",
"n. c #F4FFF9",
"m. c #FFFFFB",
"M. c #FAFDFE",
"N. c #FBFDFE",
"B. c #FFFEFD",
"V. c #FEFEFE",
"C. c #FFFEFE",
"Z. c gray100",
"A. c None",
/* pixels */
"A.A.A.A.A.A.d.Z.Z.d.A.A.A.A.A.A.",
"A.A.A.A.;.@._ W W _ #.=.A.A.A.A.",
"A.A.A.g.~ : + + + X + Q v.A.A.A.",
"A.A.l.U + # : I R 4 7 T Z.m.A.A.",
"A.<.! + : 3 w.u.t.Z.7.2.O.8.,.A.",
"A.&.& : # _ t.: + 4. .l z n q.A.",
"z.) # > : 1 1 , < 3.} 8 s 8 K a.",
"Z.R # > # ^ h.n.n.Z.| r s r V Z.",
"Z.R # : # ] s.N N H Z.Z r r B Z.",
"z./ + : # [ 0.8 r   5...r 8 ' p.",
"A.r.P 6 5 { 0.r p n M.' r h *.A.",
"A.;.e.$.%.f.7.r j M.X.p . F 1.A.",
"A.A.Z.Z.A m x s k v p 8 c k.A.A.",
"A.A.A.v.S f . r r . g G j.A.A.A.",
"A.A.A.A.=.o.L C Z L +.-.A.A.A.A.",
"A.A.A.A.A.A.i.Z.Z.i.A.A.A.A.A.A."
};
