/* XPM */
static char *_393c01de40e4898b52d8a1f71e2d64c[] = {
/* columns rows colors chars-per-pixel */
"32 32 131 2 ",
"   c black",
".  c #010001",
"X  c #020101",
"o  c #030103",
"O  c #040203",
"+  c #050204",
"@  c #050205",
"#  c #060205",
"$  c #090408",
"%  c #0B0409",
"&  c #0D050B",
"*  c #10070E",
"=  c #12070F",
"-  c #180A15",
";  c #1A0B17",
":  c #1C0B19",
">  c #1D0C19",
",  c #1E0C1A",
"<  c #200D1C",
"1  c #210D1D",
"2  c #230E1F",
"3  c #240F20",
"4  c #250F21",
"5  c #260F22",
"6  c #271022",
"7  c #2B1126",
"8  c #2C1226",
"9  c #2F1329",
"0  c #361630",
"q  c #371630",
"w  c #3A1833",
"e  c #3B1834",
"r  c #3C1834",
"t  c #3C1835",
"y  c #3D1936",
"u  c #3F1937",
"i  c #3F1A38",
"p  c #431B3B",
"a  c #481D3F",
"s  c #491D40",
"d  c #491E40",
"f  c #4C1F42",
"g  c #4E2044",
"h  c #55224A",
"j  c #56234B",
"k  c #56234C",
"l  c #57234C",
"z  c #58244D",
"x  c #59244E",
"c  c #5B2550",
"v  c #5C2550",
"b  c #5D2551",
"n  c #5D2652",
"m  c #5F2653",
"M  c #602754",
"N  c #622856",
"B  c #662959",
"V  c #662A5A",
"C  c #672A5B",
"Z  c #682A5B",
"A  c #692A5C",
"S  c #6A2B5D",
"D  c #712E63",
"F  c #722E64",
"G  c #732F65",
"H  c #783169",
"J  c #7A316B",
"K  c #7A326B",
"L  c #7B326C",
"P  c #7E336F",
"I  c #7F336F",
"U  c #803471",
"Y  c #833573",
"T  c #843573",
"R  c #853675",
"E  c #883777",
"W  c #8D397B",
"Q  c #8D397C",
"!  c #8E3A7D",
"~  c #8F3A7D",
"^  c #903A7E",
"/  c #913B7F",
"(  c #953C83",
")  c #963D83",
"_  c #973D84",
"`  c #973D85",
"'  c #9B3F88",
"]  c #9C3F89",
"[  c #9D4089",
"{  c #9E408A",
"}  c #9F408B",
"|  c #A1418D",
" . c #A3428F",
".. c #A44290",
"X. c #A44390",
"o. c #A54391",
"O. c #A74493",
"+. c #A84494",
"@. c #AB4596",
"#. c #AC4697",
"$. c #AE4799",
"%. c #B4499E",
"&. c #B5499F",
"*. c #B64AA0",
"=. c #B94BA2",
"-. c #BA4BA3",
";. c #BB4CA4",
":. c #BC4CA5",
">. c #BD4DA6",
",. c #BE4DA6",
"<. c #BE4DA7",
"1. c #BF4DA8",
"2. c #C04EA8",
"3. c #C14EA9",
"4. c #C14EAA",
"5. c #C34EAA",
"6. c #C24FAA",
"7. c #C34FAA",
"8. c #C34EAB",
"9. c #C24FAB",
"0. c #C34FAB",
"q. c #C44FAA",
"w. c #C44FAB",
"e. c #C34EAC",
"r. c #C34FAC",
"t. c #C44EAC",
"y. c #C44FAC",
"u. c #C250AA",
"i. c #C250AB",
"p. c #C350AB",
"a. c None",
/* pixels */
"a.a.a.a.a.a.a.a.a.a.a.a.w.p.8.p.8.8.p.p.a.a.a.a.a.a.a.a.a.a.a.a.",
"a.a.a.a.a.a.a.a.a.p.8.p.8.%. .) ~ ` %.8.p.y.e.a.a.a.a.a.a.a.a.a.",
"a.a.a.a.a.a.a.8.8.p. .h <             , j [ 8.8.y.a.a.a.a.a.a.a.",
"a.a.a.a.a.a.p.8.o.q                         0  .8.p.a.a.a.a.a.a.",
"a.a.a.a.a.8.8.B @                             @ T 8.p.a.a.a.a.a.",
"a.a.a.a.8.1.d                                   y p.8.8.a.a.a.a.",
"a.a.a.8.8.d                                   @ U 8.8.p.8.a.a.a.",
"a.a.8.p.S               % M [ %.*. .I R / ' @.;.8.p.p.8.p.y.a.a.",
"a.a.8.o.+             - o.y.p.8.8.p.8.p.,.%.*.*.%.*.*.*.8.p.a.a.",
"a.p.p.y               ) p.,.b 4 < g %.8.@.+             z p.y.a.",
"a.p. .              ; p.y.b         y 8.p.K c c b c c c K ,.8.a.",
"a.8.b               < ~ / <         * p.y.d               b 8.a.",
"w.8.,                               - p.r.a               , p.8.",
"p.;.                  & & * & & & & Z 8.r.6                 %.8.",
"p.[                 7 p.8.8.p.8.p.8.p.8.$.                  [ y.",
"8./                 7 8.8.p.8.p.8.p.8.p.8.W %               / p.",
"e.~                 7 p.8.I c c c c S @.8.p.I               ~ p.",
"r.[                 8 8.p.p           % ( p.8.2              .8.",
"p.;.                8 p.8.p             6 8.p.x             ;.p.",
"p.8.,               8 8.p.p             % p.8.A           < p.8.",
"a.p.b               8 8.p.p             9 y.p.h           N y.a.",
"a.8.,.K B c c c c c F p.8.p           * [ w.8.,           o.8.a.",
"a.e.8.b             8 8.p.p         G *.y.8.D           y 8.8.a.",
"a.a.p.1.*.*.*.*.*.*.=.p.8.p         #.p.y.K +           o.p.a.a.",
"a.a.y.8.p.8.p.8.;.%.*.*.*.p         ` E w             A y.e.a.a.",
"a.a.a.p.8.p.p.P @                                   a p.p.a.a.a.",
"a.a.a.a.r.w.8.e                                   a ,.r.a.a.a.a.",
"a.a.a.a.a.w.y.U @                             @ A p.r.a.a.a.a.a.",
"a.a.a.a.a.a.w.p. .y                         q o.8.p.a.a.a.a.a.a.",
"a.a.a.a.a.a.a.y.p.8.@.h ,             < h o.y.r.p.a.a.a.a.a.a.a.",
"a.a.a.a.a.a.a.a.a.y.8.p.8.%.` ~ ~  .%.y.p.8.e.a.a.a.a.a.a.a.a.a.",
"a.a.a.a.a.a.a.a.a.a.a.a.8.p.8.p.8.p.8.p.a.a.a.a.a.a.a.a.a.a.a.a."
};
