/* XPM */
static char *cf3d48ac58d2417ad5cd9cb7a7279c98[] = {
/* columns rows colors chars-per-pixel */
"32 32 101 2 ",
"   c #007DF6",
".  c #00D2AE",
"X  c #01D5B3",
"o  c #0AD6B6",
"O  c #0FD8B8",
"+  c #10D7B6",
"@  c #11D8B9",
"#  c #1DDABC",
"$  c #24DBBE",
"%  c #28DBBE",
"&  c #0086F7",
"*  c #008BF7",
"=  c #008FF8",
"-  c #0490F7",
";  c #0C91F7",
":  c #0390F8",
">  c #0992F8",
",  c #1092F7",
"<  c #1997F7",
"1  c #1698F8",
"2  c #1A99F8",
"3  c #249CF7",
"4  c #249EF8",
"5  c #2C9EF8",
"6  c #26A0F7",
"7  c #26A0F8",
"8  c #29A1F9",
"9  c #3CA7F7",
"0  c #32A4F9",
"q  c #3EAAF9",
"w  c #46ADF7",
"e  c #4BACF7",
"r  c #42ABF9",
"t  c #4AAEF9",
"y  c #4DB0F9",
"u  c #50B1F9",
"i  c #5AB5FA",
"p  c #5EB8F9",
"a  c #61B7FA",
"s  c #63BAFA",
"d  c #6BBDFA",
"f  c #71BFFA",
"g  c #2BDCC0",
"h  c #32DDC2",
"j  c #3DDEC4",
"k  c #43DFC7",
"l  c #4BDFC7",
"z  c #4BE0C8",
"x  c #52E2CB",
"c  c #59E3CD",
"v  c #67E6D2",
"b  c #6AE6D2",
"n  c #70E7D4",
"m  c #76E9D6",
"M  c #6FC0FA",
"N  c #75C2FB",
"B  c #7AC5FA",
"V  c #86EADB",
"C  c #8AEBDC",
"Z  c #92EDDF",
"A  c #83C6FB",
"S  c #86C9FB",
"D  c #89C9FB",
"F  c #94CFFB",
"G  c #ACDAFC",
"H  c #B1DCFC",
"J  c #97EEE0",
"K  c #9DEEE1",
"L  c #A1EFE3",
"P  c #A7F0E5",
"I  c #ADF1E6",
"U  c #B2F1E7",
"Y  c #BDE3FB",
"T  c gray81",
"R  c #D2D2D2",
"E  c #D3D7DA",
"W  c #D6D9DA",
"Q  c #DBDBDB",
"!  c #C3F4ED",
"~  c #CAF5EE",
"^  c #C4E4FC",
"/  c #CAE7FC",
"(  c #CFEAFE",
")  c #D3ECFF",
"_  c #DAEFFE",
"`  c #CFF9F2",
"'  c #D3F7F1",
"]  c #D4F9F3",
"[  c #DAFAF5",
"{  c #DDF0FD",
"}  c #E1E7E6",
"|  c #E4EAE9",
" . c #E3F9F6",
".. c #E3F2FD",
"X. c #EEF7FE",
"o. c #E6FAF8",
"O. c #ECFCF9",
"+. c #FAF5F3",
"@. c #F4FAFC",
"#. c #FEFEFE",
"$. c None",
/* pixels */
"$.$.$.$.$.$.$.$.$.$.$.$.$.} #.#.#.#.} $.$.$.$.$.$.$.$.$.$.$.$.$.",
"$.$.$.$.$.$.$.$.$.$.T +.#.#.#.#.#.#.#.#.+.R $.$.$.$.$.$.$.$.$.$.",
"$.$.$.$.$.$.$.$.W #.#.` C x h g g h x C ] #.#.W $.$.$.$.$.$.$.$.",
"$.$.$.$.$.$.$.#.#.I j X . . . . . . . . . j I #.#.$.$.$.$.$.$.$.",
"$.$.$.$.$.$.#. .z X . X X X X X X X X X X X . z O.#.$.$.$.$.$.$.",
"$.$.$.$.$.#.~ # . X X X X X o X X X o X X o o . C #.#.$.$.$.$.$.",
"$.$.$.$.#.~ + . X X X X X X . . . . . . . . . . I #.@.#.$.$.$.$.",
"$.$.$.@. .# . X X X X X . k C P I Z b m C Z L ! #.#.#.#.#.$.$.$.",
"$.$.Q #.z . X X X X X o K #.#.#.#.#.#.#.#.#.#.#.#.#.#.#.#.Q $.$.",
"$.$.#.U X X X X X X . V #.#.L c c Z @.#.Y 3 3 6 8 8 8 5 ( #.$.$.",
"$.R #.j X X X X X X O O.#.J . . . . n #.#.N a s s s s s ^ #.R $.",
"$.+.] . X X X X X X # ` ] k X o o X % #.#.w * > : : : : , _ +.$.",
"$.#.C . X X X X X X X X X X X X . . g #.#.r * = = = = = & S #.$.",
"| #.x . X X X X X X X O @ O @ @ @ + V #.X.3 * = = = = = & u #.W ",
"#.#.h . X X X X X . #  .O. . . . .o.#.#.Y & = = * = = = * 0 #.@.",
"#.#.$ . X X X X X X # #.#.#.#.#.#.#.#.#.#.F = = = = * * * 4 #.#.",
"#.#.$ X X X X X X X # @.#.G d f M f A { #.#.B & : * = = * 4 #.#.",
"#.#.h . X X X X X . # @.#.i   * & & & , / #.@.1 * = = = * 0 #.@.",
"} #.x X X X X X X X # @.#.d & > : : > & t #.#.t * : * = * u #.W ",
"$.#.C X X X X X X . $ X.#.d * : = * * * 6 #.#.i & = = : & D #.$.",
"$.+.[ o X o X X X X $ @.#.d & : * = = & s #.#.q & = = = * ) +.$.",
"$.R #.~ b v v v v v m @.#.d & : = = * 9 ..#.{ ; = = = & 9 #.R $.",
"$.$.#.' % % $ $ $ $ j O.#.d * : = > H #.#.#.y * - = - * H #.$.$.",
"$.$.Q #.@.@.#.#.#.#.#.#.#.f & : = > #.#.X.i & = = - & w #.Q $.$.",
"$.$.$.#.#.#.#.#.^ G H G H t * = = : F N < * * = = * < ..@.$.$.$.",
"$.$.$.$.#.@.#.G & * * & * * = = = * & * * : = : * , / #.$.$.$.$.",
"$.$.$.$.$.#.#.S   > : : * = * = = = : : * : : & < / #.$.$.$.$.$.",
"$.$.$.$.$.$.#.X.y & * * : = = = = = : = * * * e ..#.$.$.$.$.$.$.",
"$.$.$.$.$.$.$.#.#.G 9 = & & & * * * * & * 9 G #.#.$.$.$.$.$.$.$.",
"$.$.$.$.$.$.$.$.W #.#.( D u 0 4 8 0 u D ( #.#.W $.$.$.$.$.$.$.$.",
"$.$.$.$.$.$.$.$.$.$.T +.#.#.#.#.#.#.#.#.+.T $.$.$.$.$.$.$.$.$.$.",
"$.$.$.$.$.$.$.$.$.$.$.$.$.E @.#.#.@.E $.$.$.$.$.$.$.$.$.$.$.$.$."
};
