/* XPM */
static char *_0847993d256410dcfc35ddb72a1b8fb[] = {
/* columns rows colors chars-per-pixel */
"64 64 99 2 ",
"   c #00CFA9",
".  c #00D3AE",
"X  c #00D6B4",
"o  c #0AD7B6",
"O  c #10D7B5",
"+  c #15D7B8",
"@  c #13D8B9",
"#  c #1BDABB",
"$  c #21DABC",
"%  c #2ADBBE",
"&  c #0085F7",
"*  c #008CF7",
"=  c #088FF7",
"-  c #008FF8",
";  c #0490F7",
":  c #0A93F7",
">  c #0390F8",
",  c #1994F7",
"<  c #1C98F7",
"1  c #1697F8",
"2  c #1699F8",
"3  c #1D9BF8",
"4  c #229CF8",
"5  c #2BA1F8",
"6  c #32A4F8",
"7  c #38A5F8",
"8  c #3CA9F9",
"9  c #43ABF9",
"0  c #4AAFF9",
"q  c #4FB1F9",
"w  c #56B4FA",
"e  c #5CB6FA",
"r  c #63BAFA",
"t  c #6EBFFA",
"y  c #2FDDC1",
"u  c #34DDC2",
"i  c #3BDFC5",
"p  c #44DFC5",
"a  c #42E0C7",
"s  c #46E1C8",
"d  c #4CE2CA",
"f  c #52E3CC",
"g  c #5BE4CE",
"h  c #60E4CF",
"j  c #64E5D0",
"k  c #6AE6D3",
"l  c #71E7D5",
"z  c #77E8D6",
"x  c #7AE9D7",
"c  c #7DE9D8",
"v  c #76C2FA",
"b  c #7CC5FB",
"n  c #84EADA",
"m  c #8CEBDC",
"M  c #92EDDE",
"N  c #85C9FB",
"B  c #8BCBFB",
"V  c #92CFFB",
"C  c #93D0FB",
"Z  c #9DD3FB",
"A  c #A5D6FC",
"S  c #A6D8FC",
"D  c #A9D9FC",
"F  c #B3DDFC",
"G  c #B9DFFC",
"H  c #95EDE0",
"J  c #9BEEE1",
"K  c #A1EFE3",
"L  c #A5F0E4",
"P  c #AAF1E5",
"I  c #B2F2E7",
"U  c #B3F2E8",
"Y  c #BAF3EA",
"T  c #BBE1FD",
"R  c gray84",
"E  c #DADADA",
"W  c #C2F5ED",
"Q  c #CAF6EF",
"!  c #C3E4FD",
"~  c #CAE7FC",
"^  c #CCE8FD",
"/  c #D4ECFD",
"(  c #DAEEFD",
")  c #CEF6F0",
"_  c #D2F7F1",
"`  c #D5F8F2",
"'  c #D9F8F3",
"]  c #DEF0FD",
"[  c #E3E3E3",
"{  c #EAEAEA",
"}  c #E2F9F6",
"|  c #E4F2FD",
" . c #EBF6FD",
".. c #E7FBF8",
"X. c #EAFBF9",
"o. c #F4F4F4",
"O. c #F3FBFC",
"+. c #FDFEFE",
"@. c None",
/* pixels */
"@.@.@.@.@.@.@.@.@.@.@.@.@.@.@.@.@.@.@.@.@.@.@.@.@.@.@.[ +.+.+.+.+.+.+.+.E @.@.@.@.@.@.@.@.@.@.@.@.@.@.@.@.@.@.@.@.@.@.@.@.@.@.@.",
"@.@.@.@.@.@.@.@.@.@.@.@.@.@.@.@.@.@.@.@.@.@.@.@.{ o.+.+.+.+.+.+.+.+.+.+.+.+.O.{ @.@.@.@.@.@.@.@.@.@.@.@.@.@.@.@.@.@.@.@.@.@.@.@.",
"@.@.@.@.@.@.@.@.@.@.@.@.@.@.@.@.@.@.@.@.@.o.+.+.+.+.+.+.+.+.+.+.+.+.+.+.+.+.+.+.+.+.o.@.@.@.@.@.@.@.@.@.@.@.@.@.@.@.@.@.@.@.@.@.",
"@.@.@.@.@.@.@.@.@.@.@.@.@.@.@.@.@.@.E +.+.+.+.+.+.+.+.O.} ` Q W Y W _ } +.+.+.+.+.+.+.+.+.[ @.@.@.@.@.@.@.@.@.@.@.@.@.@.@.@.@.@.",
"@.@.@.@.@.@.@.@.@.@.@.@.@.@.@.@.R +.+.+.+.+.+.X.U x s # O X X X X . X o # s x Y O.+.+.+.+.+.+.R @.@.@.@.@.@.@.@.@.@.@.@.@.@.@.@.",
"@.@.@.@.@.@.@.@.@.@.@.@.@.@.@.+.+.+.+.+.+.Y j + . . . X X X X X X X X X X . . . # j Y +.+.+.+.+.+.@.@.@.@.@.@.@.@.@.@.@.@.@.@.@.",
"@.@.@.@.@.@.@.@.@.@.@.@.@.[ +.+.+.+.+.K y . . X X X X X X X X X X X X X X X X X X . . u K +.+.+.+.+.[ @.@.@.@.@.@.@.@.@.@.@.@.@.",
"@.@.@.@.@.@.@.@.@.@.@.@.o.+.+.+.+.U u . X X X X X X X X X X X X X X X X X X X X X X X X . u U +.+.+.+.o.@.@.@.@.@.@.@.@.@.@.@.@.",
"@.@.@.@.@.@.@.@.@.@.@.+.+.+.+.X.j X X X X X X X X X X X X X X X X X X X X X X X X X X X X X . h O.+.+.+.+.@.@.@.@.@.@.@.@.@.@.@.",
"@.@.@.@.@.@.@.@.@.@.+.+.+.+.W $ X X X X X X X X X X X X X X X X X X X X X X X X X X X X X X X   s +.+.+.+.+.@.@.@.@.@.@.@.@.@.@.",
"@.@.@.@.@.@.@.@.@.+.+.+.+.K X . X X X X X X X X X X X X X X X X X X X X X X X X X X X X X X X o X Q +.+.+.+.+.@.@.@.@.@.@.@.@.@.",
"@.@.@.@.@.@.@.@.+.+.+.+.m . X X X X X X X X X X X X X X X X X X X X X X X X X X X X X X X X X X . Y +.+.+.+.+.+.@.@.@.@.@.@.@.@.",
"@.@.@.@.@.@.@.O.+.+.+.M . X X X X X X X X X X X X X X X X X X X X X X X X X X X X X X X X o X . O X.+.+.+.+.+.+.O.@.@.@.@.@.@.@.",
"@.@.@.@.@.@.[ +.O.+.K . X X X X X X X X X X X X X X X X . . . X . X . . X X . X X X X . . . . X J +.+.+.+.+.+.+.+.{ @.@.@.@.@.@.",
"@.@.@.@.@.@.+.+.+.Q X X X X X X X X X X X X X X X X X @ f n K P P L M j % # y i d g j l n m J ` +.+.+.+.+.+.+.+.+.+.@.@.@.@.@.@.",
"@.@.@.@.@.+.+.+.X.# . X X X X X X X X X X X X X . + m ..+.+.+.+.+.+.+.+.+.+.+.+.+.+.+.+.+.+.+.+.+.+.+.+.+.+.+.+.+.+.+.@.@.@.@.@.",
"@.@.@.@.E +.+.+.j X X X X X X X X X X X X X X X i } +.+.+.O.+.O.+.O.O.+.+.+.+.+.+.+.+.+.+.+.+.+.+.+.+.+.+.+.+.+.+.+.+.E @.@.@.@.",
"@.@.@.@.+.+.+.Y X X X X X X X X X X X X X X X d +.+.+.+.+.+.+.+.+.+.+.+.+.+.+.+.+. .O.O.O.O.O.O.O.O.O.O.O.O.O.O.+.+.+.+.@.@.@.@.",
"@.@.@.[ +.+.+.y X X X X X X X X X X X X X X $ O.+.+.+.+.+.Q m c x n I +.+.+.+.+.+.v , 4 3 3 3 4 4 < 3 3 < 3 4 < w +.+.+.[ @.@.@.",
"@.@.@.+.+.+.P . X X o X X X X X X X X X X X K +.+.+.+.X.g . . . . . . % Q +.+.+.+.] & & & & & & & & & & & & & & =  .+.+.+.@.@.@.",
"@.@.@.+.O.+.y . X X o X X X X X X X X X X + O.+.+.+.+.s . X X o X X X . O ' +.+.+.+.G A D S A S A A D A D A D S ] +.+.+.+.@.@.@.",
"@.@.o.+.+.W X X X X X X X X X X X X X X . a +.O.O.+.I . X X X X X X X o . j +.+.+.+.G w w w w w w w w w w w w w w V +.+.+.o.@.@.",
"@.@.+.O.+.j . X X X X X X X X X X X X X . g +.+.+.+.M . X X X X X X X X . i +.+.+.+.Z & & - & & & & & & & & & & & & N +.+.+.@.@.",
"@.@.+.+.O.# . X X X X X X X X X X X X X . u J M H J f . X X X X X X X X . i +.+.+.+.A & : ; ; > > > > > > > > > = * 1 O.+.+.@.@.",
"@.{ +.+.Y . X X X X X X X X X X X X X X X . . . . . . X X X X X X X X X . i +.+.O.+.A & > - - - - - - - - - - - * * & F +.+.{ @.",
"@.O.+.+.c . X X X X X X X X X X X X X X X X X o X o X X X X X X X X X X . s +.+.+.+.Z & - - - - - - - - - - - - - ; & v +.+.+.@.",
"@.+.+.+.s . X X X X X X X X X X X X X X X X X X . X X X X X X X X X X X   K +.+.+.+.v & > - - - - - - - - - - - - * * 9 +.+.+.@.",
"[ +.+.+.$ X X X X X X X X X X X X X X X X o # # # # # # # # # # # # # # k +.+.+.+.+.6 * - - - - - - - - - - - - - - * 4 +.+.+.@.",
"O.+.+.} o . X X X X X X X X X X X X X X X f O.X.O.O.O.O.O.O.O.O.O.O.O.O.+.+.+.+.+.D & ; * - - - - - - - - - - - - - * : | +.+.o.",
"+.+.+._ X X X X X X X X X X X X X X X o X f +.+.+.+.+.+.+.+.+.+.+.+.+.+.+.+.+.+.+.Z > * - ; - - - - - - - - - - - ; * * ^ +.+.+.",
"+.+.+.W . X X X X X X X X X X X X X X X X f +.+.+.+.+.+.+.+.+.+.+.+.+.+.+.+.+.+.+.+.T < * - * - - - - - - - - - - - - * ! +.+.+.",
"+.+.+.U . X X X X X X X X X X X X X X X . f +.+.+.+.+.+.+.+.+.+.+.+.+.+.+.+.+.+.+.+.+.( 3 * - ; - - - - - - - - - - - & T +.+.+.",
"+.+.+.Y X X X X X X X X X X X X X X X o X f +.+.+.+.O./ / / / ] ( ] ] ] | +.+.+.+.+.+.+.~ = * - - - - - - - - - - - ; * G +.+.+.",
"+.+.+.W X X X X X X X X X X X X X X X X . f +.+.+.+.G * > > > > > - > > ; 5 N O.+.+.+.+.+.N & - - - - - - - - - - - * * T +.+.+.",
"+.+.+.Q X . X X X X X X X X X X X X X X . f +.+.+.+.T * ; * - - * ; * ; - & & 7 | +.+.+.+. .2 * - - - - - - - - - - * * ^ +.+.+.",
"O.+.+.} o X X X X X X X X X X X X X X X . f +.+.+.+.T * - - - - - - - - - - - & 7 +.+.+.+.+.t & ; - - - - - - - - - * : | +.+.o.",
"[ +.+.+.# X X X X X X X X X X X X X X X . f +.+.+.+.G & - - - - - - - - - ; ; - & A +.O.+.+.F * - - - - - - - - - - * 4 +.+.+.@.",
"@.+.+.+.s X X X X X X X X X X X X X X o . f +.+.+.+.T & - - - - - - - - - - - - & 0 +.+.+.+.^ * * - - - - - - - - * & 9 +.+.+.@.",
"@.o.+.+.c X X X X X X X X X X X X X X X . f +.+.+.+.T - - - - - - - - - - - - ; * 5 +.+.+.+.] ; * ; - - - - - - - > & b +.+.+.@.",
"@.{ +.+.Y X X X X X X X X X X X X X X X X f +.+.+.+.T & - - - - - - - - - - - ; & 6 +.+.+.+.( = * ; - - - - - - - * * T +.+.{ @.",
"@.@.+.+.O.+ X X X X X o X X X X X o X X . g +.+.+.+.T & - - - - - - - - - - ; > * w +.+.+.+.! * * - - - - - - - * * < O.+.+.@.@.",
"@.@.+.+.+.n   . . X . . . . X . X X . X   d +.+.+.+.T & - - - - - - - - - - - ; * ! +.+.+.+.Z & - - - - - - - - - * r +.o.+.@.@.",
"@.@.o.+.+.+.M g f d d d d d d d d d d d a n +.+.+.+.T - - - - - - - - * - > * & t +.+.+.+.+.q & ; - - - - - - * * * ! +.+.o.@.@.",
"@.@.@.+.+.+.+.X.I U U U U U U U U U U U P Q +.+.+.+.T & - - - - - - - - & & = v +.+.+.+.+.( = * - - - - - - - ; * 7 +.O.+.@.@.@.",
"@.@.@.+.+.+.O.# . . . . . . . . . . . X   s +.+.+.+.F - - - - - - - - * 9 b ^ +.+.+.+.+.+.q * - - - - - - - * ; & A +.+.+.@.@.@.",
"@.@.@.E +.+.+.f O + + @ @ @ + + O @ @ + O j +.+.+.+.G & - - - - - - - * / +.+.+.+.+.O.+.B & ; * - - - - - - - * 6 +.+.+.[ @.@.@.",
"@.@.@.@.+.+.+.+.....X...........X.X.X.X.X.X.+.+.+.+.G * - - - - - - - * ~ +.O.+.O.+.+.Z & * - - - - - - - ; * * F +.+.+.@.@.@.@.",
"@.@.@.@.E +.+.+.+.+.+.+.+.+.+.+.+.+.+.+.+.+.+.+.+.+.G * - - - - - - - * ~ +.+.+.+.+.v & - - * - - - - - * - & e +.+.+.E @.@.@.@.",
"@.@.@.@.@.+.+.+.+.+.+.+.+.+.+.+.+.+.+.+.+.+.+.+.+.+.! * - - - - - - - * ( +.+.O.A 6 * ; - * - - - - - * - * 3  .+.+.+.@.@.@.@.@.",
"@.@.@.@.@.@.+.+.+.+.+.+.+.+.+.+./ D D D D D D D D D b * - - - - - - - - N V e 4 & * - - ; - - - - - ; - * = ! +.+.+.@.@.@.@.@.@.",
"@.@.@.@.@.@.{ +.+.+.+.+.+.+.+.A = & * * & - & & * * & - - - - - - - - - & & * * - - * - - - - - - * - * & Z +.+.+.{ @.@.@.@.@.@.",
"@.@.@.@.@.@.@.O.+.+.+.+.+.+. .: * > - - > - > > > > - - - - - - - - - - - - - - * - - - - - - - ; - * * B +.+.+.o.@.@.@.@.@.@.@.",
"@.@.@.@.@.@.@.@.+.+.+.+.+.+.G * - * - - - - - - - - - - - - - - - - - - - - - - - - - - - - - ; - * & N +.+.+.+.@.@.@.@.@.@.@.@.",
"@.@.@.@.@.@.@.@.@.+.+.+.+.+.^ * = - * - - - - - - - - - - - - - - - - - - - - - - - - - - - - > * = Z +.O.+.+.@.@.@.@.@.@.@.@.@.",
"@.@.@.@.@.@.@.@.@.@.+.+.+.+.+.0 & > - ; - - - - - - - - - - - - - - - - - - - - - - - ; - - > & 4 T +.+.+.+.@.@.@.@.@.@.@.@.@.@.",
"@.@.@.@.@.@.@.@.@.@.@.+.+.+.+.O.e * * - - - - - - - - - - - - - - - - - - - - - - ; * - > & & e  .+.+.+.+.@.@.@.@.@.@.@.@.@.@.@.",
"@.@.@.@.@.@.@.@.@.@.@.@.o.+.+.+.+.F 6 & * - - - * - - - - - - - - - - - - - ; * ; - - * & 6 F +.+.+.+.o.@.@.@.@.@.@.@.@.@.@.@.@.",
"@.@.@.@.@.@.@.@.@.@.@.@.@.[ +.+.+.+.+.A 7 * & & - > - - - * - - * - - - - - > - * & * 6 Z +.+.+.+.+.[ @.@.@.@.@.@.@.@.@.@.@.@.@.",
"@.@.@.@.@.@.@.@.@.@.@.@.@.@.@.+.+.+.+.+.+.G r , * & & * * - - - - * * * * & * * 1 e G +.+.+.+.+.+.@.@.@.@.@.@.@.@.@.@.@.@.@.@.@.",
"@.@.@.@.@.@.@.@.@.@.@.@.@.@.@.@.R +.+.+.+.+.+.O.F b 9 3 ; * - & * * * : 3 9 v F  .+.+.+.+.+.+.R @.@.@.@.@.@.@.@.@.@.@.@.@.@.@.@.",
"@.@.@.@.@.@.@.@.@.@.@.@.@.@.@.@.@.@.E +.+.+.+.+.+.+.+.O.] ^ ! ! ! ^ ( | O.+.+.+.+.+.+.+.+.[ @.@.@.@.@.@.@.@.@.@.@.@.@.@.@.@.@.@.",
"@.@.@.@.@.@.@.@.@.@.@.@.@.@.@.@.@.@.@.@.@.o.+.+.+.+.+.+.+.+.+.+.+.+.+.+.+.+.+.+.+.+.o.@.@.@.@.@.@.@.@.@.@.@.@.@.@.@.@.@.@.@.@.@.",
"@.@.@.@.@.@.@.@.@.@.@.@.@.@.@.@.@.@.@.@.@.@.@.@.{ +.+.+.+.+.+.+.+.+.+.+.+.+.+.{ @.@.@.@.@.@.@.@.@.@.@.@.@.@.@.@.@.@.@.@.@.@.@.@.",
"@.@.@.@.@.@.@.@.@.@.@.@.@.@.@.@.@.@.@.@.@.@.@.@.@.@.@.@.O.+.+.+.+.+.+.O.@.@.@.@.@.@.@.@.@.@.@.@.@.@.@.@.@.@.@.@.@.@.@.@.@.@.@.@."
};
